<?xml version="1.0" encoding="UTF-8" standalone="no"?>
<!-- Created with Inkscape (http://www.inkscape.org/) -->

<svg
   xmlns:dc="http://purl.org/dc/elements/1.1/"
   xmlns:cc="http://creativecommons.org/ns#"
   xmlns:rdf="http://www.w3.org/1999/02/22-rdf-syntax-ns#"
   xmlns:svg="http://www.w3.org/2000/svg"
   xmlns="http://www.w3.org/2000/svg"
   xmlns:sodipodi="http://sodipodi.sourceforge.net/DTD/sodipodi-0.dtd"
   xmlns:inkscape="http://www.inkscape.org/namespaces/inkscape"
   width="744.09448819"
   height="1052.3622047"
   id="svg2"
   version="1.1"
   inkscape:version="0.48.0 r9654"
   sodipodi:docname="helmet.svg"
   inkscape:export-filename="/home/mark/Desktop/helmet.png"
   inkscape:export-xdpi="90"
   inkscape:export-ydpi="90">
  <defs
     id="defs4" />
  <sodipodi:namedview
     id="base"
     pagecolor="#ffffff"
     bordercolor="#666666"
     borderopacity="1.0"
     inkscape:pageopacity="1"
     inkscape:pageshadow="2"
     inkscape:zoom="1.787838"
     inkscape:cx="422.08483"
     inkscape:cy="700.61426"
     inkscape:document-units="px"
     inkscape:current-layer="layer1"
     showgrid="true"
     inkscape:window-width="1280"
     inkscape:window-height="899"
     inkscape:window-x="0"
     inkscape:window-y="24"
     inkscape:window-maximized="1"
     showguides="true"
     inkscape:guide-bbox="true">
    <inkscape:grid
       type="xygrid"
       id="grid3765"
       empspacing="5"
       visible="true"
       enabled="true"
       snapvisiblegridlinesonly="true" />
  </sodipodi:namedview>
  <metadata
     id="metadata7">
    <rdf:RDF>
      <cc:Work
         rdf:about="">
        <dc:format>image/svg+xml</dc:format>
        <dc:type
           rdf:resource="http://purl.org/dc/dcmitype/StillImage" />
        <dc:title />
      </cc:Work>
    </rdf:RDF>
  </metadata>
  <g
     inkscape:label="Layer 1"
     inkscape:groupmode="layer"
     id="layer1">
    <path
       transform="matrix(0.89516129,0,0,0.88461538,37.580645,41.041791)"
       style="fill:none;stroke:#000000;stroke-width:10.10000038;stroke-miterlimit:4"
       d="m 275,377.36223 0,-5e-5 c 0,-107.69552 69.39586,-195 155,-195 85.58807,0 154.97728,87.27294 154.99999,194.94825"
       id="path2995"
       inkscape:connector-curvature="0"
       sodipodi:nodetypes="cssc" />
    <path
       style="fill:#ffffff;stroke:#000000;stroke-width:10;stroke-linecap:butt;stroke-linejoin:miter;stroke-miterlimit:4;stroke-opacity:1;stroke-dasharray:none"
       d="m 391,192.36218 c 16.14463,-8.35331 34.94058,-10.96208 60,0 11.66177,45.71149 3.36949,80.02066 5,120 0,0 -64.09376,4.91719 -65,0 -0.96179,-5.21859 -6.42626,-106.46051 0,-120 z"
       id="path3787"
       inkscape:connector-curvature="0"
       sodipodi:nodetypes="cccsc" />
    <path
       sodipodi:type="arc"
       style="fill:#ffffff;fill-opacity:1;stroke:#000000;stroke-width:10.10000038;stroke-miterlimit:4;stroke-dasharray:none"
       id="path2993"
       sodipodi:cx="410"
       sodipodi:cy="307.36218"
       sodipodi:rx="60"
       sodipodi:ry="60"
       d="m 470,307.36218 a 60,60 0 1 1 0,-0.0159"
       sodipodi:start="0"
       sodipodi:end="6.2829199"
       sodipodi:open="true"
       transform="translate(12.5,39)" />
    <path
       style="fill:none;stroke:#000000;stroke-width:7.49459791;stroke-linecap:round;stroke-linejoin:round;stroke-miterlimit:4;stroke-opacity:1;stroke-dasharray:none"
       d="m 420,202.36218 c -3.21825,13.39087 -0.63551,54.68224 0,70"
       id="path3766"
       inkscape:connector-curvature="0"
       sodipodi:nodetypes="cc" />
    <path
       style="fill:none;stroke:#000000;stroke-width:10;stroke-linecap:butt;stroke-linejoin:miter;stroke-miterlimit:4;stroke-opacity:1;stroke-dasharray:none"
       d="m 280,348.36218 c -15,0 -30,-10 -41.11231,-13.21575 2.4516,22.47054 0.0949,27.84622 1.11231,48.21575 90,90 285,95 361.17432,-18.15704 -2.48681,-11.71855 -2.65588,-40.1863 -7.11916,-45.08807 C 580,333.36218 580,333.36218 560,338.36218"
       id="path3785"
       inkscape:connector-curvature="0"
       sodipodi:nodetypes="cccccc" />
    <path
       transform="matrix(0.72916666,0,0,0.73333333,123.54167,120.96325)"
       sodipodi:open="true"
       sodipodi:end="6.2829199"
       sodipodi:start="0"
       d="m 470,307.36218 a 60,60 0 1 1 0,-0.0159"
       sodipodi:ry="60"
       sodipodi:rx="60"
       sodipodi:cy="307.36218"
       sodipodi:cx="410"
       id="path3800"
       style="fill:#ffffff;fill-opacity:1;stroke:#000000;stroke-width:6.83763463;stroke-miterlimit:4;stroke-dasharray:none"
       sodipodi:type="arc" />
    <path
       style="fill:none;stroke:#000000;stroke-width:5;stroke-linecap:butt;stroke-linejoin:miter;stroke-miterlimit:4;stroke-opacity:1;stroke-dasharray:none"
       d="m 300,386.36218 c 80.69698,46.74599 160.79343,55.43658 240,-5"
       id="path3802"
       inkscape:connector-curvature="0"
       sodipodi:nodetypes="cc" />
  </g>
</svg>
