<?xml version="1.0" encoding="UTF-8" standalone="no"?>
<!-- Created with Inkscape (http://www.inkscape.org/) -->

<svg
   xmlns:dc="http://purl.org/dc/elements/1.1/"
   xmlns:cc="http://creativecommons.org/ns#"
   xmlns:rdf="http://www.w3.org/1999/02/22-rdf-syntax-ns#"
   xmlns:svg="http://www.w3.org/2000/svg"
   xmlns="http://www.w3.org/2000/svg"
   xmlns:xlink="http://www.w3.org/1999/xlink"
   xmlns:sodipodi="http://sodipodi.sourceforge.net/DTD/sodipodi-0.dtd"
   xmlns:inkscape="http://www.inkscape.org/namespaces/inkscape"
   width="220"
   height="220"
   id="svg2"
   version="1.1"
   inkscape:version="0.48.1 r9760"
   sodipodi:docname="social_icons.svg">
  <defs
     id="defs4">
    <linearGradient
       inkscape:collect="always"
       id="linearGradient3026">
      <stop
         style="stop-color:#ececec;stop-opacity:1"
         offset="0"
         id="stop3028" />
      <stop
         style="stop-color:#ececec;stop-opacity:1"
         offset="1"
         id="stop3030" />
    </linearGradient>
    <linearGradient
       inkscape:collect="always"
       xlink:href="#linearGradient3026"
       id="linearGradient5546"
       gradientUnits="userSpaceOnUse"
       gradientTransform="matrix(0.95285955,0,0,0.95285955,-184.79408,656.08043)"
       x1="131"
       y1="130.36218"
       x2="131"
       y2="85.362183" />
  </defs>
  <sodipodi:namedview
     id="base"
     pagecolor="#ffffff"
     bordercolor="#666666"
     borderopacity="1.0"
     inkscape:pageopacity="0.0"
     inkscape:pageshadow="2"
     inkscape:zoom="2.5970104"
     inkscape:cx="95.71912"
     inkscape:cy="91.426195"
     inkscape:document-units="px"
     inkscape:current-layer="layer2"
     showgrid="true"
     showguides="true"
     inkscape:guide-bbox="true"
     inkscape:snap-global="true"
     inkscape:window-width="1280"
     inkscape:window-height="1000"
     inkscape:window-x="0"
     inkscape:window-y="24"
     inkscape:window-maximized="1">
    <sodipodi:guide
       orientation="1,0"
       position="0,0"
       id="guide2985" />
    <sodipodi:guide
       orientation="1,0"
       position="64,0"
       id="guide2987" />
    <sodipodi:guide
       orientation="0,1"
       position="0,0"
       id="guide2993" />
    <sodipodi:guide
       orientation="0,1"
       position="0,64"
       id="guide2995" />
    <inkscape:grid
       type="xygrid"
       id="grid2997"
       empspacing="2"
       visible="true"
       enabled="true"
       snapvisiblegridlinesonly="true"
       dotted="true" />
    <sodipodi:guide
       orientation="1,0"
       position="78,0"
       id="guide2999" />
    <sodipodi:guide
       orientation="1,0"
       position="142,0"
       id="guide3001" />
    <sodipodi:guide
       orientation="1,0"
       position="156,0"
       id="guide3003" />
    <sodipodi:guide
       orientation="1,0"
       position="220,0"
       id="guide3005" />
    <sodipodi:guide
       orientation="0,1"
       position="0,78"
       id="guide3026" />
    <sodipodi:guide
       orientation="0,1"
       position="0,142"
       id="guide3028" />
    <sodipodi:guide
       orientation="0,1"
       position="0,156"
       id="guide3030" />
    <sodipodi:guide
       orientation="0,1"
       position="0,220"
       id="guide3032" />
  </sodipodi:namedview>
  <metadata
     id="metadata7">
    <rdf:RDF>
      <cc:Work
         rdf:about="">
        <dc:format>image/svg+xml</dc:format>
        <dc:type
           rdf:resource="http://purl.org/dc/dcmitype/StillImage" />
        <dc:title></dc:title>
      </cc:Work>
    </rdf:RDF>
  </metadata>
  <g
     inkscape:label="Layer 1"
     inkscape:groupmode="layer"
     id="layer1"
     transform="translate(0,-832.36218)">
    <rect
       style="fill:#090909;fill-opacity:1;stroke:none"
       id="rect3034"
       width="64"
       height="64"
       x="0"
       y="156"
       transform="translate(0,832.36218)"
       ry="0"
       rx="0"
       inkscape:export-filename="/home/mark/Desktop/test/test.png"
       inkscape:export-xdpi="35.16"
       inkscape:export-ydpi="35.16" />
    <rect
       rx="0"
       ry="0"
       y="988.36218"
       x="78"
       height="64"
       width="64"
       id="rect3804"
       style="fill:#090909;fill-opacity:1;stroke:none"
       inkscape:export-filename="/home/mark/Desktop/test/test.png"
       inkscape:export-xdpi="35.16"
       inkscape:export-ydpi="35.16" />
    <rect
       style="fill:#090909;fill-opacity:1;stroke:none"
       id="rect3806"
       width="64"
       height="64"
       x="156"
       y="988.36218"
       ry="0"
       rx="0"
       inkscape:export-filename="/home/mark/Desktop/test/test.png"
       inkscape:export-xdpi="35.16"
       inkscape:export-ydpi="35.16" />
    <rect
       rx="0"
       ry="0"
       y="910.36218"
       x="0"
       height="64"
       width="64"
       id="rect3808"
       style="fill:#090909;fill-opacity:1;stroke:none"
       inkscape:export-filename="/home/mark/Desktop/test/test.png"
       inkscape:export-xdpi="35.16"
       inkscape:export-ydpi="35.16" />
    <rect
       style="fill:#090909;fill-opacity:1;stroke:none"
       id="rect3810"
       width="64"
       height="64"
       x="78"
       y="910.36218"
       ry="0"
       rx="0"
       inkscape:export-filename="/home/mark/Desktop/test/test.png"
       inkscape:export-xdpi="35.16"
       inkscape:export-ydpi="35.16" />
    <rect
       rx="0"
       ry="0"
       y="910.36218"
       x="156"
       height="64"
       width="64"
       id="rect3812"
       style="fill:#090909;fill-opacity:1;stroke:none"
       inkscape:export-filename="/home/mark/Desktop/test/test.png"
       inkscape:export-xdpi="35.16"
       inkscape:export-ydpi="35.16" />
    <rect
       style="fill:#090909;fill-opacity:1;stroke:none"
       id="rect3814"
       width="64"
       height="64"
       x="156"
       y="832.36218"
       ry="0"
       rx="0"
       inkscape:export-filename="/home/mark/Desktop/test/test.png"
       inkscape:export-xdpi="35.16"
       inkscape:export-ydpi="35.16" />
    <rect
       rx="0"
       ry="0"
       y="832.36218"
       x="78"
       height="64"
       width="64"
       id="rect3816"
       style="fill:#090909;fill-opacity:1;stroke:none"
       inkscape:export-filename="/home/mark/Desktop/test/test.png"
       inkscape:export-xdpi="35.16"
       inkscape:export-ydpi="35.16" />
    <rect
       style="fill:#090909;fill-opacity:1;stroke:none"
       id="rect3818"
       width="64"
       height="64"
       x="0"
       y="832.36218"
       ry="0"
       rx="0"
       inkscape:export-filename="/home/mark/Desktop/test/test.png"
       inkscape:export-xdpi="35.16"
       inkscape:export-ydpi="35.16" />
    <g
       id="g3881"
       transform="matrix(0.65762817,0,0,0.65762817,-113.14764,737.64227)">
      <path
         inkscape:connector-curvature="0"
         sodipodi:nodetypes="csccccccssccsssccccc"
         id="path2189"
         d="m 206.71875,158.4375 c -3.43358,0 -7.06781,1.44477 -9.53125,3.875 -2.48227,2.45251 -3.96875,6.13977 -3.96875,9.59375 l 0,27.34375 c -1e-5,7.20841 2.86079,14.05339 7.96875,19.15625 5.10347,5.10602 11.91881,7.9375 19.125,7.9375 l 13.5625,0 c 3.45091,-1e-5 7.06814,-1.54051 9.5,-3.96875 2.44602,-2.43693 3.96875,-6.04722 3.96875,-9.5 1e-5,-3.45295 -1.53394,-7.06881 -3.96875,-9.5 -2.43433,-2.4325 -6.04238,-3.9375 -9.5,-3.9375 l 0,-0.40625 c 3.45526,-1e-5 7.06485,-1.50778 9.5,-3.9375 2.43714,-2.43352 3.96875,-6.04724 3.96875,-9.5 0,-3.45292 -1.52109,-7.09808 -3.96875,-9.53125 -2.43904,-2.42819 -6.07499,-3.9375 -9.53125,-3.9375 l -13.71875,0 0,-0.25 c -1e-5,-3.44624 -1.51168,-7.03568 -3.9375,-9.46875 -2.42764,-2.455 -6.02025,-3.96875 -9.46875,-3.96875 z"
         style="fill:#ffffff;fill-opacity:1;stroke:none" />
      <path
         inkscape:connector-curvature="0"
         sodipodi:nodetypes="csssccccsscccccsssccscccc"
         id="path2163"
         d="m 233.873,192.44279 c 1.881,0 3.497,-0.673 4.842,-2.015 1.346,-1.344 2.018,-2.957 2.018,-4.837 0,-1.881 -0.672,-3.493 -2.023,-4.836 -1.35,-1.344 -2.969,-2.017 -4.856,-2.017 l -20.321,0 0,-6.852 c 0,-1.883 -0.669,-3.494 -2.006,-4.835 -1.332,-1.347 -2.939,-2.018 -4.807,-2.018 -1.925,0 -3.556,0.66 -4.891,1.977 -1.335,1.319 -2.003,2.946 -2.003,4.881 l 0,27.351 c 0,5.648 2.003,10.475 6.013,14.481 4.007,4.009 8.833,6.011 14.479,6.011 l 13.557,0 c 1.883,0 3.494,-0.671 4.839,-2.014 1.346,-1.341 2.018,-2.957 2.018,-4.837 0,-1.881 -0.672,-3.492 -2.018,-4.836 -1.345,-1.344 -2.961,-2.018 -4.842,-2.018 l -13.56,0 c -1.883,0 -3.485,-0.66 -4.804,-1.978 -1.319,-1.324 -1.977,-2.928 -1.977,-4.815 l 0,-6.794 20.342,0 0,0.001 z"
         style="fill:#090909;fill-opacity:1" />
    </g>
    <path
       style="fill:#f2f2f2"
       inkscape:connector-curvature="0"
       id="Github__x28_alt_x29_"
       d="m 122.02365,845.0691 c 0.67704,1.53752 1.11568,4.09118 0.4612,5.96085 2.67633,2.28516 3.59584,7.84037 2.30425,12.38001 3.81458,0.29107 8.3577,-0.14003 11.29096,1.03062 -2.74172,-0.35242 -6.48628,-1.04392 -10.02252,-0.8032 -0.6701,0.0457 -1.66309,-0.0254 -1.61448,0.91719 4.09407,0.32174 8.16152,0.67125 11.52301,1.72038 -3.33371,-0.54453 -7.38033,-1.37376 -11.52301,-1.48949 -1.71112,3.37652 -5.15419,5.03614 -9.90794,5.38566 0.51096,1.11162 1.48948,1.5352 1.72848,3.32387 0.35645,2.67227 -0.55784,6.58581 0.3443,8.36695 0.43284,0.85353 1.13824,0.8761 1.61391,1.60579 -1.16428,1.37781 -4.05126,-0.15449 -4.37936,-1.60579 -0.56305,-2.48538 0.85759,-6.33872 -0.69035,-8.02323 0.10937,2.71048 -0.64116,6.51811 0.11515,8.93983 0.29802,0.95249 1.1585,1.31994 0.92182,2.17868 -5.41169,0.54974 -3.15026,-7.00419 -4.03447,-11.46281 -0.8165,0.0579 -0.45772,1.22271 -0.46061,1.71979 -0.0232,4.3539 0.89114,10.32575 -3.80185,9.74302 -0.13715,-0.91487 0.62959,-1.22619 0.92182,-2.06178 0.85584,-2.45008 -0.16029,-6.10032 0.23204,-9.05673 -1.79097,1.35003 0.18806,6.06443 -0.92182,8.48153 -0.63942,1.39112 -2.70006,1.9964 -4.26304,1.37549 0.20369,-1.03581 1.27307,-0.86859 1.72674,-1.83379 0.63423,-1.34541 0.005,-3.28337 0.2309,-5.27225 -3.31519,0.66142 -5.886789,-0.0961 -7.145391,-2.1781 -0.563048,-0.93454 -0.702505,-2.03691 -1.383018,-2.86498 -0.677035,-0.82866 -1.759149,-0.94034 -2.072785,-2.06237 4.105645,-0.98837 4.263041,4.22543 7.950314,4.35447 1.13071,0.0411 1.71864,-0.32637 2.76487,-0.5723 0.29281,-1.31473 0.9195,-2.29499 1.84363,-2.98187 -4.58825,-0.62786 -8.377364,-2.05659 -10.1394,-5.49966 -4.17104,0.20543 -7.987933,0.76211 -11.523007,1.60349 3.208706,-1.16544 7.166214,-1.58324 11.408422,-1.72038 -0.249978,-1.50223 -2.441392,-1.08905 -3.801841,-1.03119 -2.528199,0.11226 -5.710869,0.42648 -7.720581,0.80378 2.91301,-1.03871 7.000722,-0.9091 10.947227,-0.9172 -1.207096,-3.78448 -0.78872,-9.79626 1.843641,-12.03512 -0.745908,-1.88009 -0.514436,-4.95513 0.460616,-6.41916 2.939053,0.13193 4.721343,1.41369 6.567873,2.63699 2.28979,-0.65101 4.69762,-0.97506 7.83516,-0.80262 1.31936,0.0729 2.69196,0.66605 3.68553,0.57231 0.97505,-0.0914 2.04964,-1.18569 2.99634,-1.60349 1.23314,-0.54453 2.27648,-0.75226 3.68727,-0.80319 z" />
    <g
       transform="matrix(0.43403143,0,0,0.43759375,160.75439,837.15846)"
       id="Layer_3">
      <path
         style="fill:#ffffff"
         id="path3336"
         d="m 93.376,117.012 -21.173,0 0,-51.245 -10.578,0 0,-17.66 10.578,0 0,-10.603 c 0,-14.407 5.973,-22.974 22.943,-22.974 l 14.128,0 0,17.662 -8.831,0 c -6.606,0 -7.043,2.468 -7.043,7.074 l -0.024,8.839 15.998,0 -1.872,17.66 -14.126,0 0,51.247 z"
         inkscape:connector-curvature="0" />
    </g>
    <path
       d="m 60.996002,934.9574 c 0,-2.76143 -2.266641,-5.00204 -5.059929,-5.00204 -3.986648,-0.16641 -8.065843,-0.24027 -12.226558,-0.23272 -4.160616,-0.007 -8.239699,0.0663 -12.226557,0.23272 -2.793072,0 -5.059929,2.24061 -5.059929,5.00204 -0.167702,2.18704 -0.240481,4.37409 -0.233892,6.56125 -0.0066,2.18706 0.06622,4.37411 0.234004,6.56127 0,2.76142 2.266851,5.00215 5.059922,5.00215 3.986753,0.1664 8.065836,0.24026 12.226452,0.23238 4.160617,0.008 8.23991,-0.0659 12.226558,-0.23238 2.793288,0 5.059929,-2.24073 5.059929,-5.00215 0.167702,-2.18716 0.240481,-4.37421 0.233892,-6.56127 0.0069,-2.18716 -0.06616,-4.37421 -0.233892,-6.56125 z"
       id="path12"
       style="fill:#4b4b4b;fill-opacity:1"
       inkscape:connector-curvature="0" />
    <g
       style="fill:#ebebeb;fill-opacity:1"
       id="g4748"
       transform="matrix(0.10798651,0,0,0.10798651,2.3195756,929.72212)">
      <path
         d="m 0,35.59986 h 22.331 l 14.386,57.377 h 1.392 l 13.717,-57.377 h 22.528 l -25.805,83.981 v 59.563 H 26.377 v -56.881 L 0,35.59986 z"
         id="path23"
         style="fill:#ebebeb;fill-opacity:1"
         inkscape:connector-curvature="0" />
      <path
         d="m 73.348,97.46286 c 0,-8.201 2.649,-14.729 7.95,-19.591 5.301,-4.862 12.424,-7.293 21.372,-7.293 8.147,0 14.822,2.565 20.025,7.69 5.203,5.125 7.804,11.722 7.804,19.792 v 54.692 c 0,9.063 -2.554,16.172 -7.654,21.33 -5.101,5.158 -12.125,7.738 -21.07,7.738 -8.613,0 -15.506,-2.664 -20.673,-7.986 -5.169,-5.322 -7.753,-12.482 -7.753,-21.479 v -54.893 z m 20.261,56.875 c 0,2.916 0.699,5.164 2.103,6.754 1.4,1.588 3.401,2.379 6.006,2.379 2.67,0 4.788,-0.809 6.358,-2.43 1.568,-1.623 2.354,-3.855 2.354,-6.703 v -57.67 c 0,-2.314 -0.804,-4.184 -2.404,-5.605 -1.601,-1.422 -3.703,-2.135 -6.308,-2.135 -2.401,0 -4.354,0.713 -5.856,2.135 -1.502,1.421 -2.252,3.291 -2.252,5.605 v 57.67 z"
         id="path30"
         style="fill:#ebebeb;fill-opacity:1"
         inkscape:connector-curvature="0" />
      <path
         d="m 203.405,73.25386 v 105.891 h -19.687 v -11.689 c -3.629,4.307 -7.404,7.59 -11.328,9.842 -3.924,2.248 -7.735,3.377 -11.427,3.377 -4.551,0 -7.983,-1.574 -10.292,-4.729 -2.309,-3.152 -3.461,-7.881 -3.461,-14.186 v -88.506 h 19.688 v 81.172 c 0,2.512 0.412,4.326 1.236,5.449 0.824,1.123 2.159,1.686 4.008,1.686 1.452,0 3.279,-0.742 5.489,-2.229 2.21,-1.488 4.238,-3.387 6.087,-5.701 v -80.377 h 19.687 z"
         id="path37"
         style="fill:#ebebeb;fill-opacity:1"
         inkscape:connector-curvature="0" />
    </g>
    <path
       inkscape:connector-curvature="0"
       style="fill:#ebebeb;fill-opacity:1"
       id="path43"
       d="M 36.792326,933.4377 H 29.44439 v 2.24979 h 2.476884 v 13.25114 h 2.394168 v -13.25114 h 2.477002 v -2.24979 z m 3.913223,12.74587 c -0.199564,0.24988 -0.418673,0.45516 -0.657207,0.61562 -0.238759,0.16069 -0.436159,0.24071 -0.592852,0.24071 -0.199551,0 -0.343828,-0.0608 -0.432805,-0.18207 -0.08898,-0.12127 -0.133472,-0.31726 -0.133472,-0.58842 v -8.76548 H 36.76318 v 9.55746 c 0,0.68085 0.124614,1.19142 0.373947,1.53211 0.249346,0.34038 0.619847,0.51045 1.111293,0.51045 0.398582,0 0.810119,-0.12192 1.233862,-0.36467 0.423946,-0.24318 0.831373,-0.5977 1.223267,-1.0628 v 1.26225 h 2.126039 v -11.4348 h -2.126039 v 8.67964 z m 8.236885,-8.82412 c -0.329682,0 -0.655261,0.0909 -0.977597,0.27245 -0.322021,0.18195 -0.626214,0.44706 -0.912598,0.79597 V 933.4377 H 44.90557 v 15.50093 h 2.146669 v -0.87913 c 0.279249,0.34826 0.581936,0.60592 0.907514,0.77297 0.325579,0.16705 0.696198,0.25053 1.111721,0.25053 0.629784,0 1.111293,-0.21532 1.444105,-0.64683 0.332812,-0.43151 0.499653,-1.05374 0.499653,-1.86677 v -6.34367 c 0,-0.93397 -0.177415,-1.64539 -0.531936,-2.1337 -0.354304,-0.48821 -0.867997,-0.73258 -1.540862,-0.73258 z m -0.115111,8.89917 c 0,0.36445 -0.06155,0.62729 -0.184117,0.78797 -0.122568,0.16047 -0.313807,0.24081 -0.573517,0.24081 -0.180552,0 -0.351818,-0.0409 -0.514232,-0.12321 -0.162632,-0.0818 -0.330327,-0.21598 -0.503218,-0.40182 v -7.1257 c 0.144271,-0.15712 0.290271,-0.27321 0.438316,-0.34837 0.147842,-0.0748 0.297827,-0.11252 0.449226,-0.11252 0.288324,0 0.508728,0.10032 0.660121,0.3002 0.151616,0.2 0.227309,0.49274 0.227309,0.87847 v 5.90417 z m 10.045658,-2.76911 v -2.9112 c 0,-1.08527 -0.261328,-1.91698 -0.783117,-2.49557 -0.522222,-0.57859 -1.269492,-0.86789 -2.242019,-0.86789 -0.951463,0 -1.727346,0.31251 -2.327865,0.93722 -0.600836,0.62503 -0.901253,1.43352 -0.901253,2.42624 v 5.13227 c 0,1.10071 0.273533,1.96546 0.820489,2.59438 0.547055,0.6287 1.296264,0.94316 2.247629,0.94316 1.058373,0 1.854123,-0.29676 2.386933,-0.88982 0.532804,-0.59306 0.799098,-1.47573 0.799098,-2.64782 v -0.85883 h -2.188028 v 0.79468 c 0,0.67276 -0.07019,1.10794 -0.210467,1.30447 -0.140266,0.19676 -0.386804,0.29503 -0.739273,0.29503 -0.338744,0 -0.577937,-0.11598 -0.71811,-0.3488 -0.140272,-0.2326 -0.210244,-0.64965 -0.210244,-1.2507 v -2.15703 h 4.066227 z m -4.066122,-2.93248 c 0,-0.47859 0.07343,-0.82166 0.221266,-1.02911 0.147394,-0.20701 0.390158,-0.31088 0.728474,-0.31088 0.323751,0 0.559583,0.10376 0.7072,0.31088 0.147401,0.20733 0.221273,0.55052 0.221273,1.02911 v 1.15751 h -1.878213 v -1.15751 z" />
    <g
       id="g5385"
       transform="matrix(0.37051635,0,0,0.37051635,-32.278486,830.10916)">
      <path
         style="fill:#f3f3f3;fill-opacity:1;stroke:none"
         d="M 351.78571,355.57647 337.5,279.86218 c -0.72223,-10.43493 2.28024,-17.89009 11.07143,-20.71428 l 56.78571,-10.35715 c 12.41446,-2.21572 18.00416,2.75251 21.42857,10 l -5,11.78572 -11.07142,-7.14286 -8.21429,10.35714 -10.35714,-6.42857 -8.21429,10 L 372.5,269.50504 c -2.39911,0.60815 -2.41862,2.64407 -2.5,4.64286 l 6.78571,36.78571 c 0.13384,2.09834 1.58023,2.35911 2.85715,2.85714 l 8.21428,-10.71428 10.35715,7.5 8.92857,-10.35715 9.64285,6.78572 7.85715,-10 11.42857,8.21428 c -0.89741,13.01973 -6.29227,17.60676 -12.85714,20 l -55.35715,9.64286 z"
         id="path4871"
         inkscape:connector-curvature="0"
         sodipodi:nodetypes="ccccccccccccccccccccccc" />
      <path
         sodipodi:type="arc"
         style="fill:#090909;fill-opacity:1;stroke:none"
         id="path5383"
         sodipodi:cx="356.02679"
         sodipodi:cy="283.74612"
         sodipodi:rx="6.3839288"
         sodipodi:ry="6.3839288"
         d="m 362.41072,283.74612 c 0,3.52575 -2.85818,6.38393 -6.38393,6.38393 -3.52574,0 -6.38392,-2.85818 -6.38392,-6.38393 0,-3.52574 2.85818,-6.38392 6.38392,-6.38392 3.52575,0 6.38393,2.85818 6.38393,6.38392 z" />
    </g>
    <g
       id="g5580"
       transform="translate(257.6039,182.51757)">
      <path
         style="fill:url(#linearGradient5546);fill-opacity:1;stroke:none"
         d="m -89.508117,739.33659 0,42.8787 28.58579,0 14.29289,-14.2929 0,-28.5858 -42.87868,0 z"
         id="path2987"
         inkscape:connector-curvature="0" />
      <rect
         style="fill:#090909;fill-opacity:1;fill-rule:evenodd;stroke:none"
         id="rect2994"
         width="42.878677"
         height="10.481455"
         x="-89.508125"
         y="739.32422" />
      <path
         style="font-size:25.01973534px;font-style:normal;font-variant:normal;font-weight:normal;font-stretch:normal;text-align:start;line-height:125%;letter-spacing:0px;word-spacing:0px;writing-mode:lr-tb;text-anchor:start;fill:#090909;fill-opacity:1;stroke:none;font-family:Kabel;-inkscape-font-specification:Kabel"
         d="m -55.086067,754.01649 -9.76681,5.9852 1.75684,3.0373 3.03723,-1.5484 0,13.4591 4.97274,-0.4169 0,-20.5163 z m -19.59317,0.7742 c -1.79657,0 -3.35569,0.4606 -4.67497,1.3996 -0.44623,0.3026 -0.88463,0.6983 -1.2804,1.1911 -0.39579,0.4928 -0.63318,0.8508 -0.71465,1.0719 l 3.48389,2.3524 c 0.17461,-0.4928 0.55725,-0.9027 1.13153,-1.2208 0.55486,-0.3027 1.14113,-0.4467 1.72705,-0.4467 0.63636,0 1.14747,0.1713 1.57817,0.5359 0.43071,0.3648 0.65509,0.8538 0.6551,1.4592 -1e-5,0.745 -0.31777,1.2482 -0.92309,1.4888 -0.62085,0.2522 -1.34595,0.3573 -2.20349,0.3573 -0.22117,-0.015 -0.42092,-0.014 -0.59553,-0.03 -0.17849,0 -0.30954,0 -0.3871,0 l 0,3.6328 c 0.0776,-0.015 0.19949,-0.044 0.32754,-0.059 0.12804,0 0.36542,0 0.71465,0 1.0011,0 1.79234,0.079 2.38215,0.2382 0.33369,0.1086 0.59831,0.3356 0.80397,0.6848 0.1901,0.3492 0.26798,0.7592 0.268,1.2209 -2e-5,0.6208 -0.22187,1.1241 -0.71465,1.4889 -0.50833,0.3647 -1.09071,0.5748 -1.72706,0.6252 -0.52384,-0.035 -1.10622,-0.1931 -1.72706,-0.4764 -0.44235,-0.2095 -0.81334,-0.4754 -1.13152,-0.7742 -0.31818,-0.3026 -0.52704,-0.54 -0.65509,-0.7146 l -3.33501,3.1266 c 0.91962,1.0515 1.98975,1.8285 3.2159,2.3523 1.20676,0.5239 2.53365,0.7742 3.93055,0.7742 2.2583,0 3.97439,-0.5007 5.18117,-1.5484 0.33369,-0.2871 0.67871,-0.6575 1.01242,-1.1017 0.33369,-0.4443 0.60868,-0.9599 0.83375,-1.5187 0.20564,-0.5548 0.29776,-1.1645 0.29777,-1.8163 -1e-5,-0.9235 -0.23612,-1.8199 -0.74442,-2.7395 -0.50833,-0.9235 -1.15557,-1.585 -1.9355,-1.9652 0.031,-0.015 0.20353,-0.1751 0.50621,-0.4467 0.28712,-0.2678 0.54661,-0.6491 0.83375,-1.1613 0.26773,-0.4889 0.46874,-1.0843 0.56576,-1.7866 0.0311,-0.2367 0.0298,-0.4741 0.0298,-0.7147 -1e-5,-0.9196 -0.23612,-1.7666 -0.74442,-2.531 -0.65189,-0.9352 -1.5378,-1.646 -2.62037,-2.1737 -1.09424,-0.5083 -2.2046,-0.7742 -3.36478,-0.7742 z"
         id="path3001"
         inkscape:connector-curvature="0" />
      <path
         style="fill:#090909;fill-opacity:1;stroke:#f2f2f2;stroke-width:0.99999994px;stroke-linecap:butt;stroke-linejoin:round;stroke-opacity:1"
         d="m -60.922327,782.21529 14.29289,-14.2929 -14.29289,0 0,14.2929 z"
         id="path2992"
         inkscape:connector-curvature="0" />
      <path
         id="path3040"
         d="m -89.508117,739.33659 0,42.8787 28.58579,0 14.29289,-14.2929 0,-28.5858 -42.87868,0 z"
         style="fill:none;stroke:#f2f2f2;stroke-width:0.99999994px;stroke-linecap:butt;stroke-linejoin:miter;stroke-opacity:1"
         inkscape:connector-curvature="0" />
    </g>
  </g>
  <g
     inkscape:groupmode="layer"
     id="layer2"
     inkscape:label="Slices"
     style="display:none">
    <rect
       inkscape:export-ydpi="35.16"
       inkscape:export-xdpi="35.16"
       inkscape:export-filename="/home/mark/Desktop/test/test.png"
       rx="0"
       ry="0"
       y="156"
       x="0"
       height="64"
       width="64"
       id="rect5588"
       style="fill:#090909;fill-opacity:1;stroke:none" />
    <rect
       transform="translate(0,-832.36218)"
       inkscape:export-ydpi="35.16"
       inkscape:export-xdpi="35.16"
       inkscape:export-filename="/home/mark/Desktop/test/test.png"
       style="fill:#090909;fill-opacity:1;stroke:none"
       id="rect5590"
       width="64"
       height="64"
       x="78"
       y="988.36218"
       ry="0"
       rx="0" />
    <rect
       transform="translate(0,-832.36218)"
       inkscape:export-ydpi="35.16"
       inkscape:export-xdpi="35.16"
       inkscape:export-filename="/home/mark/Desktop/test/test.png"
       rx="0"
       ry="0"
       y="988.36218"
       x="156"
       height="64"
       width="64"
       id="rect5592"
       style="fill:#090909;fill-opacity:1;stroke:none" />
    <rect
       transform="translate(0,-832.36218)"
       inkscape:export-ydpi="90"
       inkscape:export-xdpi="90"
       inkscape:export-filename="/home/mark/Desktop/test/youtube.png"
       style="fill:#090909;fill-opacity:1;stroke:none"
       id="rect5594"
       width="64"
       height="64"
       x="0"
       y="910.36218"
       ry="0"
       rx="0" />
    <rect
       transform="translate(0,-832.36218)"
       inkscape:export-ydpi="90"
       inkscape:export-xdpi="90"
       inkscape:export-filename="/home/mark/Desktop/test/convore.png"
       rx="0"
       ry="0"
       y="910.36218"
       x="78"
       height="64"
       width="64"
       id="rect5596"
       style="fill:#090909;fill-opacity:1;stroke:none" />
    <rect
       transform="translate(0,-832.36218)"
       inkscape:export-ydpi="90"
       inkscape:export-xdpi="90"
       inkscape:export-filename="/home/mark/Desktop/test/gcal.png"
       style="fill:#090909;fill-opacity:1;stroke:none"
       id="rect5598"
       width="64"
       height="64"
       x="156"
       y="910.36218"
       ry="0"
       rx="0" />
    <rect
       transform="translate(0,-832.36218)"
       inkscape:export-ydpi="90"
       inkscape:export-xdpi="90"
       inkscape:export-filename="/home/mark/Desktop/test/facebook.png"
       rx="0"
       ry="0"
       y="832.36218"
       x="156"
       height="64"
       width="64"
       id="rect5600"
       style="fill:#090909;fill-opacity:1;stroke:none" />
    <rect
       transform="translate(0,-832.36218)"
       inkscape:export-ydpi="90"
       inkscape:export-xdpi="90"
       inkscape:export-filename="/home/mark/Desktop/test/github.png"
       style="fill:#090909;fill-opacity:1;stroke:none"
       id="github"
       width="64"
       height="64"
       x="78"
       y="832.36218"
       ry="0"
       rx="0"
       inkscape:label="#rect5602" />
    <rect
       transform="translate(0,-832.36218)"
       inkscape:export-ydpi="90"
       inkscape:export-xdpi="90"
       inkscape:export-filename="/home/mark/Desktop/test/twitter.png"
       rx="0"
       ry="0"
       y="832.36218"
       x="0"
       height="64"
       width="64"
       id="twitter"
       style="fill:#090909;fill-opacity:1;stroke:none"
       inkscape:label="#rect5604" />
  </g>
</svg>
